<?xml version="1.0"?><svg height="60px" version="1.1" viewBox="0 0 56 60" width="56px" xmlns="http://www.w3.org/2000/svg" xmlns:sketch="http://www.bohemiancoding.com/sketch/ns" xmlns:xlink="http://www.w3.org/1999/xlink"><title/><desc/><defs/><g fill="none" fill-rule="evenodd" id="Science" stroke="none" stroke-width="1"><g fill="currentColor" id="Icon-12" transform="translate(-2.000000, 0.000000)"><path d="M17,50 C17.552,50 18,49.552 18,49 C18,47.542 19.542,46 21,46 C21.552,46 22,45.552 22,45 C22,44.448 21.552,44 21,44 C18.43,44 16,46.43 16,49 C16,49.552 16.448,50 17,50 M18,15 C18,14.448 17.552,14 17,14 C16.448,14 16,14.448 16,15 C16,16.458 14.458,18 13,18 C12.448,18 12,18.448 12,19 C12,19.552 12.448,20 13,20 C15.57,20 18,17.57 18,15 M24,39 C24,39.552 24.448,40 25,40 C25.552,40 26,39.552 26,39 C26,36.43 23.57,34 21,34 C20.448,34 20,34.448 20,35 C20,35.552 20.448,36 21,36 C22.458,36 24,37.542 24,39 M25,22 C24.448,22 24,22.448 24,23 C24,24.458 22.458,26 21,26 C20.448,26 20,26.448 20,27 C20,27.552 20.448,28 21,28 C23.57,28 26,25.57 26,23 C26,22.448 25.552,22 25,22 M11,24 C10.448,24 10,24.448 10,25 C10,27.57 12.43,30 15,30 C15.552,30 16,29.552 16,29 C16,28.448 15.552,28 15,28 C13.542,28 12,26.458 12,25 C12,24.448 11.552,24 11,24 M11,42 C11.552,42 12,41.552 12,41 C12,39.542 13.542,38 15,38 C15.552,38 16,37.552 16,37 C16,36.448 15.552,36 15,36 C12.43,36 10,38.43 10,41 C10,41.552 10.448,42 11,42 M21,9 C20.448,9 20,9.448 20,10 C20,10.552 20.448,11 21,11 C22.458,11 24,12.542 24,14 C24,14.552 24.448,15 25,15 C25.552,15 26,14.552 26,14 C26,11.43 23.57,9 21,9 M55.633,37.245 C57.123,35.936 58,34.042 58,32 C58,29.86 57.049,27.894 55.415,26.574 C55.8,25.771 56,24.896 56,24 C56,21.936 54.917,20.035 53.208,18.95 C53.724,18.051 54,17.037 54,16 C54,13.42 52.361,11.177 49.989,10.349 C49.996,10.232 50,10.116 50,10 C50,6.691 47.309,4 44,4 C43.193,4 42.407,4.164 41.672,4.48 C40.813,1.876 38.339,0 35.5,0 C31.292,0 29.421,3.796 29.02,5.804 C29.013,5.837 29.023,5.869 29.02,5.903 C29.016,5.937 29,5.965 29,6 L29,52.94 C28.774,55.779 26.363,58 23.5,58 C20.648,58 18.244,55.771 18.026,52.924 C17.987,52.403 17.523,52 17,52 C16.688,52 16.394,52.146 16.204,52.394 C15.427,53.415 14.259,54 13,54 C10.794,54 9,52.206 9,50 C9,49.092 9.316,48.224 9.916,47.489 C10.186,47.158 10.215,46.691 9.989,46.328 C9.763,45.965 9.334,45.785 8.913,45.884 C8.578,45.962 8.279,46 8,46 C5.794,46 4,44.206 4,42 C4,40.351 5.047,38.851 6.604,38.267 C6.975,38.128 7.229,37.784 7.252,37.39 C7.275,36.995 7.064,36.623 6.712,36.442 C5.04,35.579 4,33.876 4,32 C4,30.236 4.907,28.636 6.426,27.72 C6.664,27.577 6.831,27.342 6.889,27.071 C6.946,26.799 6.888,26.517 6.729,26.29 C6.252,25.609 6,24.818 6,24 C6,22.339 7.058,20.836 8.631,20.259 C8.942,20.145 9.177,19.884 9.257,19.563 C9.337,19.241 9.253,18.9 9.032,18.653 C8.367,17.91 8,16.968 8,16 C8,14.062 9.388,12.411 11.301,12.073 C11.57,12.025 11.807,11.87 11.959,11.643 C12.11,11.416 12.162,11.137 12.103,10.871 C12.034,10.559 12,10.274 12,10 C12,7.794 13.794,6 16,6 C16.866,6 17.701,6.289 18.416,6.836 C18.707,7.058 19.095,7.104 19.429,6.956 C19.763,6.807 19.99,6.488 20.02,6.124 C20.211,3.812 22.179,2 24.5,2 C25.614,2 26.536,2.358 27.316,3.094 C27.718,3.473 28.351,3.454 28.729,3.052 C29.108,2.65 29.09,2.018 28.688,1.639 C27.535,0.551 26.126,0 24.5,0 C21.661,0 19.187,1.876 18.328,4.48 C17.593,4.164 16.807,4 16,4 C12.691,4 10,6.691 10,10 C10,10.116 10.004,10.232 10.011,10.349 C7.639,11.177 6,13.42 6,16 C6,17.037 6.276,18.051 6.792,18.95 C5.083,20.035 4,21.936 4,24 C4,24.896 4.2,25.771 4.585,26.574 C2.951,27.894 2,29.86 2,32 C2,34.042 2.877,35.936 4.367,37.245 C2.906,38.362 2,40.116 2,42 C2,45.093 4.353,47.647 7.363,47.966 C7.123,48.614 7,49.298 7,50 C7,53.309 9.691,56 13,56 C14.242,56 15.423,55.623 16.416,54.932 C17.435,57.886 20.255,60 23.5,60 C27.408,60 30.701,56.958 30.997,53.076 C30.998,53.063 30.992,53.051 30.992,53.038 C30.993,53.024 31,53.014 31,53 L31,6.112 C31.146,5.501 32.133,2 35.5,2 C37.821,2 39.789,3.812 39.98,6.124 C40.01,6.488 40.237,6.807 40.571,6.956 C40.904,7.104 41.293,7.058 41.584,6.836 C42.299,6.289 43.134,6 44,6 C46.206,6 48,7.794 48,10 C48,10.274 47.966,10.559 47.897,10.871 C47.838,11.137 47.89,11.416 48.041,11.643 C48.193,11.87 48.43,12.025 48.699,12.073 C50.612,12.411 52,14.062 52,16 C52,16.968 51.633,17.91 50.968,18.653 C50.747,18.9 50.663,19.241 50.743,19.563 C50.823,19.884 51.058,20.145 51.369,20.259 C52.942,20.836 54,22.339 54,24 C54,24.818 53.748,25.609 53.271,26.29 C53.112,26.517 53.054,26.799 53.111,27.071 C53.169,27.342 53.336,27.577 53.574,27.72 C55.093,28.636 56,30.236 56,32 C56,33.876 54.96,35.579 53.288,36.442 C52.936,36.623 52.725,36.995 52.748,37.39 C52.771,37.784 53.025,38.128 53.396,38.267 C54.953,38.851 56,40.351 56,42 C56,44.206 54.206,46 52,46 C51.721,46 51.422,45.962 51.087,45.884 C50.666,45.785 50.237,45.965 50.011,46.328 C49.785,46.691 49.814,47.158 50.084,47.489 C50.684,48.224 51,49.092 51,50 C51,52.206 49.206,54 47,54 C45.736,54 44.571,53.408 43.802,52.375 C43.545,52.03 43.096,51.89 42.686,52.023 C42.539,52.072 42.409,52.153 42.303,52.256 C42.117,52.422 41.994,52.658 41.974,52.924 C41.756,55.771 39.352,58 36.5,58 C35.243,58 34.057,57.587 33.07,56.806 C32.638,56.463 32.008,56.536 31.665,56.969 C31.322,57.402 31.396,58.031 31.829,58.374 C33.153,59.422 34.812,60 36.5,60 C39.747,60 42.569,57.882 43.586,54.925 C44.575,55.621 45.755,56 47,56 C50.309,56 53,53.309 53,50 C53,49.298 52.877,48.614 52.637,47.966 C55.647,47.647 58,45.093 58,42 C58,40.116 57.094,38.362 55.633,37.245 M38,45 C38,45.552 38.448,46 39,46 C40.458,46 42,47.542 42,49 C42,49.552 42.448,50 43,50 C43.552,50 44,49.552 44,49 C44,46.43 41.57,44 39,44 C38.448,44 38,44.448 38,45 M47,18 C45.542,18 44,16.458 44,15 C44,14.448 43.552,14 43,14 C42.448,14 42,14.448 42,15 C42,17.57 44.43,20 47,20 C47.552,20 48,19.552 48,19 C48,18.448 47.552,18 47,18 M35,40 C35.552,40 36,39.552 36,39 C36,37.542 37.542,36 39,36 C39.552,36 40,35.552 40,35 C40,34.448 39.552,34 39,34 C36.43,34 34,36.43 34,39 C34,39.552 34.448,40 35,40 M39,28 C39.552,28 40,27.552 40,27 C40,26.448 39.552,26 39,26 C37.542,26 36,24.458 36,23 C36,22.448 35.552,22 35,22 C34.448,22 34,22.448 34,23 C34,25.57 36.43,28 39,28 M49,24 C48.448,24 48,24.448 48,25 C48,26.458 46.458,28 45,28 C44.448,28 44,28.448 44,29 C44,29.552 44.448,30 45,30 C47.57,30 50,27.57 50,25 C50,24.448 49.552,24 49,24 M45,36 C44.448,36 44,36.448 44,37 C44,37.552 44.448,38 45,38 C46.458,38 48,39.542 48,41 C48,41.552 48.448,42 49,42 C49.552,42 50,41.552 50,41 C50,38.43 47.57,36 45,36 M34,14 C34,11.43 36.43,9 39,9 C39.552,9 40,9.448 40,10 C40,10.552 39.552,11 39,11 C37.542,11 36,12.542 36,14 C36,14.552 35.552,15 35,15 C34.448,15 34,14.552 34,14" id="brain"/></g></g></svg>